<svg id="Layer_1" data-name="Layer 1" xmlns="http://www.w3.org/2000/svg" viewBox="0 0 280 280"><defs><style>.cls-1{fill:#000002;}.cls-2{fill:#020202;}.cls-3{fill:#e4e3e4;}.cls-4{fill:#2d2d2d;}.cls-5{fill:#131313;}.cls-6{fill:#aaa;}.cls-7{fill:#3aa6b9;}.cls-8{fill:#fdfdfd;}.cls-9{fill:#fefefe;}.cls-10{fill:#fafafa;}.cls-11{fill:#f8f8f8;}.cls-12{fill:#fbfbfb;}.cls-13{fill:#f9f9f9;}.cls-14{fill:#efefef;}.cls-15{fill:#e9e9e9;}.cls-16{fill:#efeff0;}.cls-17{fill:#e6e6e6;}.cls-18{fill:#f2f2f2;}.cls-19{fill:#ececec;}.cls-20{fill:#ccc1c0;}.cls-21{fill:#ededee;}.cls-22{fill:#e2e2e2;}.cls-23{fill:#c2b8b7;}.cls-24{fill:#ebebec;}.cls-25{fill:#1a1a1a;}.cls-26{fill:#c8bfc1;}.cls-27{fill:#dadada;}.cls-28{fill:#bfbcbd;}.cls-29{fill:#d4d4d6;}.cls-30{fill:#ababab;}.cls-31{fill:#cfcfcf;}.cls-32{fill:#d2d2d2;}.cls-33{fill:#a6a6a8;}.cls-34{fill:#ccc0c0;}.cls-35{fill:#12100f;}.cls-36{fill:#1d1c1c;}.cls-37{fill:#282727;}.cls-38{fill:#050505;}.cls-39{fill:#050605;}</style></defs><path class="cls-1" d="M171.44,235.15c-.23.18-.47.52-.69.51-6.24-.21-12.27,1.69-18.47,1.81-.29,0-.66.09-.86-.05-5.14-3.53-10.47-.54-15.69-.42-3.28.08-6.55.75-9.83,1.15a16.1,16.1,0,0,0-6.86,2.11,11.34,11.34,0,0,1-6.65,1.81c-.78,0-1.88.13-2.19-.5-1.41-2.89-3.55-1.42-5.55-1.16-7.87,1-15.59-.35-23.33-1.44-12.19-1.71-24.4-3.29-36.6-5-1.52-.21-2,.17-2.09,1.77-.42,6.18-1.41,7.07-7.65,7.16-3.11.05-6.22.06-9.33,0-3.49-.12-5.15-1.73-5.44-5.14-.22-2.52-.4-5-.49-7.55-.06-1.52-.54-2.27-2.24-2.2-2.32.1-4.65,0-7-.07-.71,0-1.44-.16-1.39-1.07s.75-.78,1.33-.79a54.67,54.67,0,0,1,6.4,0c2.1.21,2.21-.63,2.22-2.43.12-11.74-3.65-22.71-6.54-33.85q-3.46-13.36-7-26.71a12.09,12.09,0,0,1-.39-4.31c.3-3,1.52-4.23,4.44-4.24q29.88-.1,59.76-.16c3.22,0,5,1.77,5.92,4.59,1.83,5.62,3.58,11.27,5.39,16.9.32,1,.74,2,1.1,2.93a11.94,11.94,0,0,0,7.61-6.34c2.14-4.23,4.75-8.23,7.19-12.31.84-1.4,1.61-3.1,3.45-3.27,2.15-.19,3.08-1.46,3.93-3.19,1.57-3.22,3.3-6.37,5-9.53.53-1,.79-1.68-.69-2-6.23-1.55-10-5.62-11.68-11.71,0-.1-.33-.12-.75-.25-.45,2.47.36,4.65,1.38,7.19A8.19,8.19,0,0,1,92,130.66c-.51-3.43.67-6.53,2-9.55a119.76,119.76,0,0,0,4.38-12.34,2.18,2.18,0,0,0-.89-2.88c-6.63-5.12-8.56-12-6.75-20,2.37-10.36,8.49-18.61,15.41-26.33a68.89,68.89,0,0,1,35-21.35,6.91,6.91,0,0,1,1.71-.34c4.56.09,8.53-.39,10.69-5.52,1.09-2.58,4.3-3.56,7.07-4.18a27.39,27.39,0,0,1,12.35,0c-3.4,2.46-5.49,5.43-5.76,9.84,1.49-1.94,2.67-3.66,4-5.21,3.1-3.48,8.63-4.41,12.13-.8,2.22,2.29,4.71,4.34,6.77,6.81,4.84,5.78,5.66,12.4,3.74,19.45a3.66,3.66,0,0,0,1,3.88c5,5.75,11.32,10.06,16.36,15.74a25.13,25.13,0,0,1,4.83,7.56,10.4,10.4,0,0,1-.89,9.63c-1.1-3.49-1.42-7-4.17-9.32,4.72,11.54.38,26.65-10,33.23.68-3.53,1.62-6.87.29-11-1.28,6.93-3,13-9.64,16.58,2.2.85,4,1.6,5.81,2.23s3.71,1.11,5.57,1.67c13.11,4,22.27,13,30.12,23.67,13.64,18.5,23.7,38.9,31.52,60.44,1.29,3.55,2.51,7.14,3.51,10.78.56,2,1.48,3,3.6,2.57a7.1,7.1,0,0,1,1.46,0c.79,0,1.74,0,1.63,1.12-.1.93-1.06.68-1.67.68-6.22,0-12.44-.09-18.65-.11-5.06,0-10.11,0-15.16.06-1.51,0-2.35-.14-2-2,2.18-11.52,2.12-23.15,1.57-34.8a20,20,0,0,1-.65-6.54c.61,4.15-.62,8.27.07,12.41-.31,9.1-.43,18.21-2.17,27.2-1.62,8.39-4.83,11.43-13.24,12.49-15.35,1.93-30.71,1.41-46.06,0-1.63-.14-3.3.08-4.87-.57,1-3.06,2.51-5.93,2.32-9.38-.3-5.41-1.75-10.19-5.83-13.94-.69-.64-1.24-1.21-.79-2.2,1.79-1.92,3.75-3.66,5.67-5.43,3.94-3.64,9-4.2,13.91-4.32,6.79-.15,13.55-.89,20.36-.78a45.13,45.13,0,0,1,12.06,1.61c4,1.16,7,.18,9.44-3.09a6,6,0,0,0,1.19-7c-1.4-3.16-4.38-4-7.45-4-5.89-.11-11.49,1.45-16.94,3.53a19.69,19.69,0,0,0-3.2,1.36,56.45,56.45,0,0,1,17.5-4.79,24.72,24.72,0,0,1,5.15.31,6.29,6.29,0,0,1,3.9,10.4c-2.53,3.51-5.74,4.31-9.94,3.23A97.92,97.92,0,0,0,192.1,198a68,68,0,0,0-12.66,1.77,14.56,14.56,0,0,0-9.27,6.15c-3,4.72-7.49,5.53-12.44,5.94-3.83.31-7.7.65-10.09,1.86,1.54-1,4.59-1.16,7.55-1.54,3.81-.48,7.61-1.51,11.51-.79,6.34,3,9.06,13.95,7,20.19A6.31,6.31,0,0,1,171.44,235.15Z"/><path class="cls-2" d="M92.05,252.34c-2.33.11-4.67.41-7-.27-1.3-.39-2.83-.73-2.95-2.38-.13-1.83,1.22-2.75,2.77-3.3,3.55-1.27,7.31-1,11-1.13,15.22-.65,30.46-1.09,45.69-1.56a23.75,23.75,0,0,1,4.91.38,2.53,2.53,0,0,1,2.11,2.16c.2,1.25-.6,1.95-1.53,2.56a10.51,10.51,0,0,1-5.58,1.42C125,251,108.52,251.64,92.05,252.34Z"/><path class="cls-3" d="M171.44,235.15c4.69-7,2.07-18.68-4.82-23.27.16-.76.3-1.52,1.38-1.21-.16,1.44,1.28,1.51,1.95,2.22,5.06,5.36,7.3,17.07,2.13,23Z"/><path class="cls-4" d="M15.42,235.77c-1.07-.37-3.05.57-3-1.2s2-1,3.07-1,3.31-.71,3.29,1.08S16.61,235.41,15.42,235.77Z"/><path class="cls-5" d="M13.73,236.8h2.59c.72,0,1.46.12,1.42,1,0,.6-.6.91-1.27.9-1.91,0-3.83,0-5.74-.1-.66,0-1.49-.07-1.43-1s.91-.79,1.56-.79h2.87Z"/><path class="cls-6" d="M238.42,196.72c-.84-4.29-.43-8.62-.33-12.95a18.93,18.93,0,0,1,.91,7.08C238,192.73,239.07,194.81,238.42,196.72Z"/><path class="cls-7" d="M40,160.71c9,0,18.07,0,27.11,0,1.54,0,2.34.34,2.85,2Q80.23,197,90.75,231.16c.54,1.78.52,2.55-1.78,2.24q-21.48-2.86-43-5.5c-2.29-.28-2.9-1.08-2.76-3.43.58-9.58.93-19.18,1.31-28.78.14-3.77-1.37-5.28-5.13-5.43H39.1c-7-.18-7-.18-8.86-7-1-3.65-1.86-7.33-3-10.93-.68-2.15-1.44-5.17-4.44-4.29-2.83.84-1.76,3.7-1.26,5.77q1.72,7.2,3.8,14.32c.56,1.9.06,2.45-1.79,2.22a3.37,3.37,0,0,0-2,.12c-3,1.81-3.51,0-4.11-2.38-2.06-8.28-4.2-16.55-6.48-24.77-.67-2.39.07-2.7,2.23-2.67,8.93.1,17.87,0,26.81,0Z"/><path class="cls-8" d="M131.74,124.87c.06-1.22-1.32-3.07,1.22-3.27,1.77-.13,3.71-1,4.69,1.81,2,5.71,6.4,8.7,12.25,9.27,5.29.51,9.39-1.86,12.27-6.31a11.77,11.77,0,0,0,1.59-9.21c-.38-1.68.11-2.21,1.39-2.78,1.67-.76,3.34-2.32,4.93-2.22s1.73,2.72,2.84,4a9.32,9.32,0,0,0,.74.9c.8.76,1.44,2.19,2.73,1.68s.37-1.88.32-2.85c-.14-2.81-.2-5.65-.61-8.42-.76-5.09,4.11-8.43,8.17-8.7,4.27-.28,8.12,3.21,8.62,7.76.8,7.36-6.67,15.48-14,15-2.08-.12-2.36.44-1.84,2.25.67,2.33,1.14,4.71,2.46,6.81.53.84,1.19,2,2,2,3.17,0,2.52,2.16,2.25,3.89-1.08,6.93-3.94,13-9.26,17.68-4.65,4.07-10.36,3.68-13.91-.64-.85-1-1-1.47.25-2.64a38.24,38.24,0,0,0,11.67-19,8.55,8.55,0,0,0,0-1.6c-3.92,3.81-7.59,7.2-11.91,9.81-9.11,5.5-18.68,8.56-29.37,5.77a19.56,19.56,0,0,1-12.28-8.74c5.46-.11,9-2.81,11.62-7,.9-.43,1.65.25,2.48.34,1.85.19,3.38-.32,3.62-2.34s-1-3-3-3C133,125.07,132.36,125.27,131.74,124.87Z"/><path class="cls-8" d="M105.38,231.49c3.15-5.8,8-9.58,14-12.14a19.11,19.11,0,0,0,2-1.13c.47-.28,1.23-.45.85-1.22a1.07,1.07,0,0,0-1.54-.34c-5,2.56-10.41,4.39-13.81,9.31-1.59,2.32-3.33,4.53-5,6.79-1.74-.47-3.1-1.24-2.8-3.4,2.72-4.71,6.68-8.3,11-11.49,3.55-2.64,8.05-2.35,12.07-2.27,7,.13,14,1.37,21,1.9a6,6,0,0,1,4.77,2.75,15.59,15.59,0,0,1,3.11,9.47c0,1.79-.74,2.35-2.41,2.41-4.08.13-8.24.41-12.18-.48-6-1.37-10.5,1.2-15,4.48-2.34,1.71-4.7,3.44-7.73,3.77-1.2.29-2.16,0-.76-1.08a5.73,5.73,0,0,0,2.32-4.36,46.75,46.75,0,0,1,10.31-7.86c.74-.45,2.24-.73,1.76-1.89-.58-1.4-1.64,0-2.45.13-6.28,1.3-11,4.93-14.69,10a5.61,5.61,0,0,1-2.38,2.06C107,236.27,105.53,233.13,105.38,231.49Z"/><path class="cls-9" d="M139.71,148.83a9.31,9.31,0,0,1-9,4.38c-5.31-.33-8,2.17-9.6,6.8-.66,1.91-2,3.59-2.62,5.5-.94,2.66-2.84,3.47-5.37,3.52a11.63,11.63,0,0,1-8.34-2.7c-3-2.73-3.38-4.77-1.41-8.29a172.16,172.16,0,0,0,8.27-15.67,9,9,0,0,1,1.54-2.44c2.42-2.61,3.32-2.48,5.54.27,4.29,5.32,10.22,7.46,16.76,8.31C136.78,148.67,138,148.71,139.71,148.83Z"/><path class="cls-10" d="M155.66,109.67c6.53,5.25,7.51,12.23,2.48,17.51-3.06,3.21-8.41,3.89-12.62,1.62a11.87,11.87,0,0,1-5.74-12.86,9.71,9.71,0,0,1,9.67-7.63c1.44,0,2.89.18,4.34.28,0,1.55-1.29,1.07-2.07,1.31-1.61.49-3.37.45-4.8,1.53C150,111.73,152.8,110.48,155.66,109.67Z"/><path class="cls-11" d="M168,210.67l-1.38,1.21c-7.6.29-15.26.3-22,4.36.48-2.05,1.86-3.37,4.37-3.75,4.6-.7,9.21-1.35,13.83-1.9,1.63-.2,3-.57,4-2,5.67-8.87,14.47-11,24.17-11.31a85,85,0,0,1,27.61,3.28c4.21,1.28,7.82,1,10.66-2.73.53-.08.83.05.6.66-1.88,3.17-4.69,4.82-8.26,3.87-7.82-2.09-15.74-1.55-23.66-1.38-4.34.08-8.67.54-13,.68a18.59,18.59,0,0,0-13.74,6.47A8.52,8.52,0,0,1,168,210.67Z"/><path class="cls-12" d="M110.19,106.46a46.64,46.64,0,0,0,12.5,2,30.55,30.55,0,0,0,12-1.87c3.77-1.56,7.53-.66,11.36-.84-5.21,2.23-8.59,5.81-9.11,11.58-.1,1-.48,1.09-1.41,1.25-3.2.52-5.37.07-7.48-3.08-2.9-4.34-7.82-5.83-12.9-4.55-2.83.72-3.58-.4-4.23-2.52C110.73,107.84,110.51,107.32,110.19,106.46Z"/><path class="cls-13" d="M148.75,105.29c2.5-1.09,5.21-1.17,7.89-2.47-4-1.6-7.85-3.08-11.2-5.55s-6.65-4.76-7.88-9c6.4,7.15,14.57,11.07,23.6,13.48a25.29,25.29,0,0,0,4.83.94c1.33.09,2,.61,2.09,1.85.17,1.5,1.86,3.38.83,4.29-1.75,1.54-4.21,2.27-6.39,3.3-.55.26-.85-.25-1.15-.63A15.57,15.57,0,0,0,148.75,105.29Z"/><path class="cls-11" d="M120.19,113.87c-.93.18-1.89.29-2.8.56-.7.2-1.72.35-1.65,1.31s1.06.94,1.82.92c2.12-.06,4.25-.08,6.36-.26.69-.05,1.23-.23,1.86.28,2.34,1.92,3.58,7.4,2.45,11.12a9.26,9.26,0,0,1-7.7,6.57c-2,.16-3.13-.22-2.91-2.59.53-5.58-1.4-10.68-3.6-15.63-1-2.22-.12-2.64,1.68-2.91A6.57,6.57,0,0,1,120.19,113.87Z"/><path class="cls-14" d="M94.57,185.46a19.7,19.7,0,0,0,12.76,3c2.32-.29,4.1-1.06,5.27-3.39,2.23-4.41,4.72-8.68,7.23-12.94.74-1.25.67-2.56.87-4.2,1.85,2.49.88,4.55-.26,6.51-2.59,4.43-5.24,8.83-7.91,13.21a4.55,4.55,0,0,0-.73,4.05c1,3.17.33,6.31-.88,9.36a41.29,41.29,0,0,1-5.45,10.29c2.4-7.21,7-13.83,4.92-22.08-5.85,1.19-11.58.9-16.57-3.15C93.75,185.56,93.94,185.26,94.57,185.46Z"/><path class="cls-15" d="M191.34,130.3c2.13,12.25-5.73,28.09-16.21,33.28-10.06,5-22.24-.94-24.06-11.76.78.17.92.9,1.14,1.43,5.29,13.07,20.59,14.85,30.25,2.9a38.53,38.53,0,0,0,8.25-20.49C190.91,133.87,191.13,132.08,191.34,130.3Z"/><path class="cls-12" d="M30.91,195.66c-2.91,0-5.82.08-8.72,0-.87,0-2.43.82-2.53-.88s1.08-2.35,2.69-2.34l6.39,0c3.39,0,6.78,0,10.17,0a6.43,6.43,0,0,1,2.29.25,2.17,2.17,0,0,1,1.32,2.1c0,1.3-1.08.81-1.73.82-3.29.05-6.59,0-9.88,0Z"/><path class="cls-16" d="M130.44,169.28c4.65,13.3,11,25.83,17.26,38.4.37.73,2,1.72.42,2.55-1.3.68-1.45-.94-1.83-1.68a256.2,256.2,0,0,1-16.35-38.1C129.75,169.91,129.37,169.28,130.44,169.28Z"/><path class="cls-17" d="M229.79,198.47l-.6-.66c3.18-6.09-.29-9.89-6.81-9.7a53,53,0,0,0-19.62,4.83c-.85.37-1.63,1.07-2.69.78,0-.21-.06-.48,0-.52,8-4.57,16.36-7.55,25.71-5.92C231.59,188.29,233.36,193.54,229.79,198.47Z"/><path class="cls-18" d="M22.76,171.28c.23-.44.34-1.05.68-1.23.7-.36,1.07.38,1.23.83q1.08,3,1.95,6.06,1.65,5.88,3.17,11.77c.14.51.91,1.34-.36,1.52-.65.09-1.36.21-1.62-.73C26.14,183.44,24.45,177.39,22.76,171.28Z"/><path class="cls-19" d="M97.46,82.43c-.93,4.81-1.33,9.58.85,14.23,1.5,3.2,4,5.37,6.92,7.24l3.12,2.06c-8-1.21-13.61-8.85-13-16.82a31.86,31.86,0,0,1,1.56-7.36C97.44,81.67,97.65,81.86,97.46,82.43Z"/><path class="cls-20" d="M131.74,124.87c2.31-1.09,4.44-.93,5.63,1.51a3.21,3.21,0,0,1-1.75,4.56,4.38,4.38,0,0,1-5.06-.83C131,128.36,131.35,126.62,131.74,124.87Z"/><path class="cls-21" d="M118.38,98.07c-6.28-2.39-9-9.6-5.95-15.84C113.44,88,114.23,93.47,118.38,98.07Z"/><path class="cls-22" d="M197.17,177.2c1.91-1.54,2.72-3.9,4.26-5.74a34.49,34.49,0,0,1,14-10,8.15,8.15,0,0,1,1.68-.44,4.75,4.75,0,0,1,1.25.26A37.67,37.67,0,0,0,198.44,178c-.45.21-.83.87-1.39.36C196.66,178,196.8,177.56,197.17,177.2Z"/><path class="cls-23" d="M105.38,231.49a10.85,10.85,0,0,1,2.51,5.45,3.81,3.81,0,0,1-2.14,1.35c-1.57.48-3.55,1.46-4.58,0-.83-1.16,1-2.44,1.78-3.61S104.57,232.56,105.38,231.49Z"/><path class="cls-24" d="M197.17,177.2c-.24,1.3.58,1,1.27.82-1.74,4.55-.4,9.2-.5,13.81,0,1,.67,2.14-1,3.07a190.19,190.19,0,0,1-.47-25.44h.73Z"/><path class="cls-25" d="M155.66,109.67c-2.6,2.81-6.23,2.36-9.52,3a.88.88,0,0,1-.92-.93,1.48,1.48,0,0,1,1.2-1.45,25.89,25.89,0,0,1,5.4-1c.66-.07,1.61.45,2-.64A1.61,1.61,0,0,1,155.66,109.67Z"/><path class="cls-26" d="M99.11,229.36c.52,1.47,1.8,2.32,2.8,3.4-1.09,1.51-1.74,3.46-4.08,3.64-1.78.14-2.42-.6-1.72-2.17A18.45,18.45,0,0,1,99.11,229.36Z"/><path class="cls-12" d="M21.93,219.84H41.14v.59H21.93Z"/><path class="cls-27" d="M109.94,117.39c-2.46,7-.28,12.13,5.82,16-2.85-.23-5.36-2.41-6.8-5.75C107.4,124.07,107.52,120.62,109.94,117.39Z"/><path class="cls-28" d="M115.34,234.46c1.55,2.34.22,3.7-1.72,4.67-1.41.71.13.52.16.77-1,.61-2.14.7-2.76-.34s.37-1.74,1-2.39A11.43,11.43,0,0,1,115.34,234.46Z"/><path class="cls-29" d="M102.46,221.72c-1.69,3.78-4.4,1.6-7.44,1.61C97.76,221.78,100.17,222.4,102.46,221.72Z"/><path class="cls-30" d="M130.44,169.28l-.5,1.17a22.12,22.12,0,0,1-2.08-8.26C129.28,164.35,129.78,166.85,130.44,169.28Z"/><path class="cls-31" d="M94.57,185.46l-.75.67c-2.39-1.22-3.42-3.35-4-5.81A48.28,48.28,0,0,0,94.57,185.46Z"/><path class="cls-32" d="M119.74,83.7a2.16,2.16,0,0,1,1.5,1.9c.2.87,1.54,2.15.16,2.61-1,.33-1.28-1.34-1.59-2.3A2.7,2.7,0,0,1,119.74,83.7Z"/><path class="cls-33" d="M97.46,82.43l-.58-.65a10.62,10.62,0,0,1,3-5.56Z"/><path class="cls-34" d="M183.64,105.58c.49,1.36,2.22,1.87,2.36,3.5.17,2-.23,3.84-2,5.07a3.81,3.81,0,0,1-5-.27c.28-2.38.63-4.75,2.2-6.7C181.82,106.38,182.33,105.36,183.64,105.58Z"/><path class="cls-35" d="M183.64,105.58a9.51,9.51,0,0,0-3.54,5.76c-.22.9-.1,2-1.13,2.54-1.6-3.35,1.36-9.93,4.74-10.53.4-.07.83-.06,1,.34C185,104.64,184,105,183.64,105.58Z"/><path class="cls-36" d="M184.25,117.67A2.32,2.32,0,0,1,182,120a2,2,0,0,1-2.28-2.06,2.22,2.22,0,0,1,2.13-2.36C183.25,115.53,183.94,116.48,184.25,117.67Z"/><path class="cls-37" d="M138,138.89c-.9-.29-2.33.11-2.48-1.27-.1-.85.93-1.12,1.73-1,1,.12,2.41-.12,2.65,1.08S138.77,138.68,138,138.89Z"/><path class="cls-38" d="M150.19,113.18c3.07.18,6.18,3.59,6.08,6.67a4.11,4.11,0,0,1-4.43,4,6.69,6.69,0,0,1-5.94-6.7C146,114.46,147.54,113,150.19,113.18Z"/><path class="cls-39" d="M121.49,117.51c3.08.1,6.38,3.69,6.22,6.89a3.27,3.27,0,0,1-3.73,3.46c-3.23-.06-6.08-3.44-6-7C118.11,118.69,119.39,117.44,121.49,117.51Z"/></svg>