<svg id="Layer_1" data-name="Layer 1" xmlns="http://www.w3.org/2000/svg" viewBox="0 0 280 280"><defs><style>.cls-1{fill:#131313;}.cls-2{fill:#151e21;}.cls-3{fill:#151e22;}.cls-4{fill:#3aa6b9;}.cls-5{fill:#788588;}.cls-6{fill:#6b7175;}.cls-7{fill:#1b252a;}.cls-8{fill:#23292e;}.cls-9{fill:#283235;}.cls-10{fill:#fff;}.cls-11{fill:#c9e1e3;}.cls-12{fill:#c9e0e2;}.cls-13{fill:#cae0e3;}.cls-14{fill:#151f23;}.cls-15{fill:#1a242a;}.cls-16{fill:#1e282c;}.cls-17{fill:#21292f;}.cls-18{fill:#656766;}.cls-19{fill:#646464;}.cls-20{fill:#abb6b4;}.cls-21{fill:#595959;}.cls-22{fill:#6a6a69;}.cls-23{fill:#c2d0cd;}.cls-24{fill:#bcc3c5;}.cls-25{fill:#2f3a3c;}.cls-26{fill:#222d30;}.cls-27{fill:#1a2427;}.cls-28{fill:#c9e0e0;}.cls-29{fill:#192628;}.cls-30{fill:#243b3f;}.cls-31{fill:#223638;}.cls-32{fill:#314245;}.cls-33{fill:#334246;}.cls-34{fill:#1d282a;}.cls-35{fill:#2d373a;}</style></defs><path class="cls-1" d="M86.46,114.6c1.63.11,2.44-.7,1.41-2a21.47,21.47,0,0,1-4.3-13.12c-.19-12.17,8.94-20.75,21-19.81,1.28.1,1.69-.56,2.36-1.27,4.46-4.74,12.82-6.46,18.81-3.89A12.42,12.42,0,0,1,133,82.85c.83,2.83-.26,4.25-3.28,4.43a10.48,10.48,0,0,1-1.77,0c-2.08-.24-2.58.59-1.7,2.41-.32,1.44-1.09.58-1.75.35a4.87,4.87,0,0,0-3.9-1.58c-3.79,0-7.56.61-11.36.42a2.72,2.72,0,0,0-2.37,1.4c-1,1.3-1.69,2.85-2.86,4-.68.56-1.16,1.33-1.84,1.9-2,1-2.25,2.67-1.92,4.73.41,2.53,1.65,4.85,1.7,7.44-1.31,2.08.82,3.08,1.43,4.57a11.37,11.37,0,0,1,1.69,8.8c-.65,2-2.2,3.41-2.92,5.06.82-1.07,1.22-2.82,2.93-3.46s3.68.45,5.43.24.81-3.37,2.92-3.86c.9.56.59,1.32.36,2.07-.51,2.45.45,3.1,2.9,2.87a30.89,30.89,0,0,1,23.69,7.46c4.34,3.66,8.88,7.08,13.27,10.68,4.12,3.38,4.08,3.42,7.31-.53.5-.24.75.07,1,.44.1,2.18,2.64,1.22,3.36,2.61a1.19,1.19,0,0,1-.64,1c-7.65.27-13.34,4.52-18.82,9.22a6.17,6.17,0,0,1-3.57,1.88A2.12,2.12,0,0,1,141,157c-2.08-1.3-4.39-2.18-6.5-3.43-1.24-.74-2-.44-2.18,1.1-.19,2.05-1.62,2.8-3.39,3.12-3.68.66-7.36,1.27-11,2a5.29,5.29,0,0,1-5.73-2.08c-.81-1.11-2.07-1.79-3-2.77,1.19,1.26,3,2,3.44,3.9.25,1.08.42,2.37-.71,2.9s-1.68-.67-2.1-1.53a6.27,6.27,0,0,0-3.51-3.51c-.67,1.48-.3,3-.52,4.4-.39,2.56-1.85,3.57-4.37,2.94A29.83,29.83,0,0,1,98.3,163a7.25,7.25,0,0,0-7.85,1.43c3.06-1.47,5.79-2.14,8.64-1,.91.38,2,.84,1.75,2s-1.51,1-2.46.88a21.33,21.33,0,0,0-2.63-.37c-1.47.06-2.14.63-2.84,2.23-1.91,4.42-2,8.91-1.68,13.51-1.25,1.93-2.59,3.81-2.94,5.71,1.07-1.32.37-4.44,3.65-4.62,2.26,1.73-.56,3.33-.11,4.91.58-2.82,1.25-3.26,3.81-2.24,1.17.47,2.33,1,3.54,1.32.92.46,1.14,1.42,1.58,2.17.11.14.17.07.2-.22.18-1.34-.5-3.53,1.58-3.42,1.91.11,1.25,2.26,1.38,3.63,0,.29,0,.59,0,.88,0,.11,0,0,0-.28.06-1.64-.08-4.06,1.85-4s1.17,2.45,1.13,3.9a5.25,5.25,0,0,0,.57,2.82,2.44,2.44,0,0,1,0,1.39c-1.72,2.49-3.81,4.73-4.92,7.64s-.85,3.59,2.22,3.6q20.09,0,40.17,0a36.43,36.43,0,0,0,3.79-.57,3.14,3.14,0,0,1,1.45.29c5.35.74,10.73.1,16.09.3.49,0,1,0,1.47,0a2.75,2.75,0,0,0,2.67-1.48,1.66,1.66,0,0,1,1.33-.61c2.64,2.45,5.91,2.11,9.11,2.07,5.29-.06,10.58.18,15.86-.19.72,0,1.39.3,2.09.37,13-.43,26-.08,38.93-.21,1.56,0,3.19.23,4.45-1.05a1.37,1.37,0,0,1,1.36-.67c.58,2.41,2.12,2.93,4.51,2.88,7.38-.18,14.76-.08,22.15-.05a4.83,4.83,0,0,1,3.45.71H6.3c.88-.94,1.94-.73,2.93-.73q14.76,0,29.53,0c1.7,0,3-.15,4.21-1.79,1.39-1.88,3.9-2.57,6-3.59,1.48-.72,1.69-1.62,1.36-3-2.13-9-4.25-18-6.27-27-.32-1.43-.83-2-2.31-1.92-2.24.1-3.14-1.17-3.09-3.34,0-2,0-3.93-.05-5.9.53-1.61,1.15-.63,1.76-.07.75,1.47.57,3.07.59,4.62,0,1.7.73,2.53,2.48,2.54,7.76,0,15.53.09,23.29,0,2.58,0,4-3.09,3.21-6.5-1.18-1-2.57-.85-3.94-.85-7.46,0-14.91,0-22.36,0-1.24,0-2.9.52-3.35-1.46a3.44,3.44,0,0,1,2.89-1.13,119.36,119.36,0,0,1,12.26.16,15.27,15.27,0,0,0,2-.25c3.93.24,7.87.12,11.8.14a2.8,2.8,0,0,0,3.06-2.16,174.34,174.34,0,0,1,6.1-16.94c.84-1.91-.44-3.67-.18-5.51a1.45,1.45,0,0,1,.79-1c1.19-.26,1.89,1.76,3.17.77a27.26,27.26,0,0,0,4-3.42c.53-.59.11-1.33-.16-1.94-1.62-3.68-1.2-7.46-.62-11.26C85.67,114.72,85.94,114.42,86.46,114.6Z"/><path class="cls-2" d="M79.28,131.13l-.56.77c-2-.08-2.31-1.9-3.15-3.12-1.93-2.81-2.53-3-5.43-1.13a47.36,47.36,0,0,0-10.51,8.4c-5.08,5.71-6,11.3-2.77,18.11.42.91,1.33,1.8.53,3l-1.16.53c-3-1.71-3.63-4.8-4.19-7.76a5.79,5.79,0,0,0-3.32-4.45c-6.07-3.19-12.54-3.8-19.21-3.05-2.91.33-3.11,1-1.46,3.56A36.48,36.48,0,0,0,40.4,157.86c1,.62,2.11.39,3.17.39,8.46,0,16.92,0,25.38,0,1.12,0,2.4-.45,3.31.68A4.81,4.81,0,0,1,69,160.07q-13.44,0-26.88,0a4.56,4.56,0,0,1-2.27-.54c-.38-.52-.77-.6-1.21-.07A41.9,41.9,0,0,1,24.2,143.8c-.9-1.62-.81-2.45,1.2-2.8,1.81-.32,4.34-.34,5.15-1.49s-.23-3.53-.22-5.37c0-9.09.23-7.17,7.44-6.35,2.79.32,3.77.11,4.53-2.77,1.78-6.75,5.6-12.48,10.09-17.79,1.19-1.4,2-1,3.22-.2a45.55,45.55,0,0,1,11.68,11.25,75.89,75.89,0,0,1,12-9.78c1.5-1,2.42-.82,3.43.52,1.35,1.79,2.92,3.44,3.75,5.58l-.59.65c-1.62.1-2.05-1.32-2.8-2.26-2.21-2.77-2.47-2.8-5.45-.74a47.5,47.5,0,0,0-15.38,17.07,55.34,55.34,0,0,1,8.58-5.58c2.86-1.41,4-1.28,5.74,1.34C77.78,126.9,80.11,128.35,79.28,131.13Z"/><path class="cls-3" d="M164.34,146l.74-.64c2-1.51,3.71,0,5.41.71,3.06,1.3,3.2,1.36,4.54-1.7a83.76,83.76,0,0,0,4.18-12.47c.32-1.21.39-2.55,1.63-3.31.59-.1,1.26-.33,1.27.66a84.53,84.53,0,0,1-6.47,19c-.68,1.42-.27,2,.78,2.88,12.85,10.64,25.63,21.35,38.49,32,3,2.46,6.6.83,9.92,1,.82,0,.74-1.27.93-2a19.76,19.76,0,0,1,4.32-8.53c.58-.15.81.2,1,.65.17,1.27-.54,2.26-1.11,3.28a29.51,29.51,0,0,0-2.87,9.23c-.34,1.86.25,3,2.11,3.52a28.39,28.39,0,0,1,10.56,6c-.06-5.6-1.23-10.74-1.52-16-.16-2.81-.93-5.6-.4-8.46.25-.41.56-.71,1.1-.57,1.54,3.16,1.16,6.65,1.64,10,.82,5.79,1.35,11.63,1.83,17.46a16.51,16.51,0,0,0,1.19,4.45l-.6.77c-1.14,0-1.72-.88-2.28-1.66-4.62-6.42-11.21-9.28-18.75-10.43-1.85-.28-3.69-.55-5.52-.93-1.05-.48-2.4-.36-3.14-1.51,1.62-3.77-.74-5.6-3.36-7.73q-17.13-13.94-34-28.23c-3-2.55-6.17-4.86-10-6C165.18,147.25,164.39,147,164.34,146Z"/><path class="cls-4" d="M175.85,106.22c-.59-.3-.81-.34-.9-.46-2.37-3.54-5.68-4.82-9.85-4.15-2.43.4-3.42-.66-3.24-3.12.15-2,.07-3.93,0-5.9,0-1.53.43-2.4,2.18-2.36,3.24.08,6.49.07,9.74,0,1.57,0,2.07.66,2.05,2.12C175.83,96.86,175.85,101.38,175.85,106.22Z"/><path class="cls-5" d="M101.74,95.55c.35-.61.62-1.28,1.33-1.58,1.05.15,1.58-.54,2.13-1.25,4.5-5.87,8.69-5.92,13.07-.2.69.51.67,1.62,1.61,1.92,1.33-2,2.79-3.83,5.11-4.73.4.2.8.71,1.21,0,5.21-.51,8.16,1.89,8.74,7,.55,4.76-1.83,11-8.18,10.82a2.91,2.91,0,0,1-1.65-.15c-3-1.46-3.78-4.32-4.53-7.18-.19-.74,0-1.59-.62-2.18s-.56.12-.67.45a11.92,11.92,0,0,1-2,6.07,6.63,6.63,0,0,1-11.33.12,9.78,9.78,0,0,1-2-4.56A6.94,6.94,0,0,0,101.74,95.55Z"/><path class="cls-6" d="M182.11,129.21l-1.06-.45c-2.2.62-4.05-.34-5.71-1.5-2-1.39-1.8-3.23-.49-5.07a1.44,1.44,0,0,1,1.3-.23c1.3,1.54,2.41,3.25,4.63,3.76,1.45.33,2.48.24,3.12-1.25,1.57-3.71,3-7.44,4.42-11.23.73-2-.61-2.61-2-3.17s-3-1.21-4,.85c-.72,1.49-1,3.22-2.32,4.37a1.5,1.5,0,0,1-2-1.25c-.27-1,.74-1.25,1.25-1.8a10.08,10.08,0,0,0,.59-1c2.28-5.33,2.27-5.34,7.81-3.2a22.66,22.66,0,0,0,2.19.87c2.24.58,2.74,1.9,1.82,3.92-.58,3.83-1.35,7.58-4.13,10.55a36.4,36.4,0,0,0-1.72,4C185.2,129.46,184,130,182.11,129.21Z"/><path class="cls-3" d="M179.26,112.24c-.68,1.17-1.61,2.4.7,2.83,1.63-.59,2.38.4,2.8,1.69a2.35,2.35,0,0,1-1.2,3c-1.73.85-3.3,2-5.21,2.54l-1-.12c-1.15-1.32,0-2.08.73-2.92s1.76-1.11,2.8-2.17c-3.35,0-4.28,2.33-4.38,4.22-.24,4.49-2.64,7.9-4.71,11.52A68.89,68.89,0,0,1,164.5,141c-.75.95-1.32,2.27-2.93,2l-.66-.68a126.51,126.51,0,0,0,7.91-12.07c1.87-3.22,3.58-6.42,3.85-10.32C172.89,116.6,176.57,112.72,179.26,112.24Z"/><path class="cls-7" d="M125.61,107c.48,0,.93.06,1.15.57-1.37,5.14-3.54,9.83-9.33,11-2.3.44-3.46,1.09-3.69,3.33l-.59-1.93c-4.76-.69-8.25-3.35-11-7.12-.76-1.32-3.5-2.28-.77-4.24,1.66,0,2.15,1.55,3,2.54,2.31,2.64,4.85,4.9,8.53,5.35,5,.61,8.18-1.17,10.47-5.79C124,109.37,124.08,107.73,125.61,107Z"/><path class="cls-8" d="M187.54,123.38q2.07-5.28,4.13-10.55c2,2.34-.72,4.3-.73,6.55C190.93,120.41,190.18,123.34,187.54,123.38Z"/><path class="cls-9" d="M238.93,171.29l-.62.68a7.09,7.09,0,0,0-5.75,1.86,1.67,1.67,0,0,1-1.84.47l-.64-.67a9.21,9.21,0,0,1,4.66-3.78A3,3,0,0,1,238.93,171.29Z"/><path class="cls-10" d="M164.34,146a31.48,31.48,0,0,1,12,6.59q18.22,15.25,36.51,30.42c3.35,2.79,3.36,2.79.63,5.92a4.85,4.85,0,0,1-1.26,2.26q-6.54,6.51-13.06,13a4.72,4.72,0,0,1-2.25,1.28c-1.34.86-2.84.48-4.27.49-5.27,0-10.54-.15-15.8.08-2.55.11-4.27-.57-5.31-2.88-1.28-.39-1.72-1.52-2.21-2.58-1.8-3.8-4.11-7.33-5.92-11.13-1.18-2.5-1.46-2.46-2.84-.17-2.68,4.43-5.07,9-8.29,13.11a6.7,6.7,0,0,1-3.11,2.56,5.23,5.23,0,0,1-3.53,1.06c-14.24,0-28.48-.1-42.72,0-2.81,0-2.94-1.11-2.25-3.16,1.3-3.83,3.18-7.28,6.48-9.8a22.3,22.3,0,0,1,1.24-3.3c1.51-3.27,1.9-3.52,5.34-2.14,2.13.85,2.89-.66,3.72-1.91,1.27-1.93,1.34-4.28,1.81-6.48a7,7,0,0,1,1.48-3.46,187.62,187.62,0,0,1,15.64-14.73c1.73-1.49,3-3.76,5.7-3.94l8.63-6.64C154.74,147.4,159.14,145.48,164.34,146Z"/><path class="cls-10" d="M99,187.24c-1.75,1.25-2.9-.34-4-1.08-1.81-1.19-2.37-.53-2.59,1.2a22.9,22.9,0,0,1-.76,4.08,7.22,7.22,0,0,1,.07-5.46c.33-1,1-2,.1-3-.32-.44-1.56.15-1.18-1.07-.09-2.14-.94-4.18-.79-6.37s.34-4.12,1.81-5.77c.55-.61,1.1-1.28.33-2-1.32-1.27-.33-1.8.7-2.23a7.49,7.49,0,0,1,4.61-.44c1,.2,2,.88,3.89.24-5-2.32-8.9-2.09-12.81,2.42,1.15-5.11,4.4-7.17,8.55-6.26a37.06,37.06,0,0,1,4.7,1.67c2,.76,3.22.43,3.19-2,0-1.67.1-3.33.2-5a5.67,5.67,0,0,1,.41-1.23c3.07,1.38,5.49,3.14,5.76,7,1.49-2.87,1.29-3.16-5.57-8.53,2-.55,2.47-1,5.81,2.57,3.13,3.35,6.21,3.2,9.94,2.32a68.26,68.26,0,0,1,7.25-1.27c1.89-.24,3.1-.79,2.87-3.05-.28-2.67.82-2.74,2.93-1.57,2.27,1.25,4.3,3.08,7.17,3.15.79,0-.15.68-.14,1.07-.71,1.62-2.26,2.4-3.51,3.48-3.05,2.63-6,5.4-9,8.1a8.88,8.88,0,0,1-5,2.21,25.57,25.57,0,0,0-8.86,3,9,9,0,0,0-5.11,6.45c-.41,2.32-1.54,2.76-3.7,2.52-2.83-.33-5.32.35-6.14,3.65A2.56,2.56,0,0,1,99,187.24Z"/><path class="cls-4" d="M57.39,157.11c-5.54-9.61-4.6-15.94,3.54-23.8a53.32,53.32,0,0,1,11-7.85c1.26-.71,2-.69,2.86.6,1.24,2,2.61,3.9,3.93,5.84,1.77,2.89,1.17,5.52-.26,8.48a83.73,83.73,0,0,0-5.25,15.22c-.43,1.64-1.15,2.23-2.82,2.07C66.07,157.27,61.68,158.32,57.39,157.11Z"/><path class="cls-10" d="M51.82,199.14c-2.24-9.68-4.38-19-6.6-28.37-.39-1.65.13-2,1.69-2,6.88.06,13.76.08,20.63,0,1.91,0,2.07.68,1.72,2.25-1.91,8.51-4.41,16.86-6.75,25.26-.24.85-.36,1.79-1.68,1.37C57.67,196.67,54.64,196.81,51.82,199.14Z"/><path class="cls-10" d="M216.49,190.07a58.29,58.29,0,0,1,12.9,2.56C235.3,194.74,240,198.31,243,204c.75,2.28-.78,2-2.2,2l-42.39,0c-.64-1.11.34-1.61.9-2.18,4.2-4.25,8.49-8.42,12.65-12.71C213.33,189.7,214.81,189.69,216.49,190.07Z"/><path class="cls-4" d="M40.4,157.86a2.14,2.14,0,0,1-2.65-.31,43.23,43.23,0,0,1-12.22-13.73c-.85-1.43-.06-1.67,1-1.92a32,32,0,0,1,24.88,3.88c.68.42,1.35.79,1.32,1.76-.16,3.82,1.88,6.89,3.51,10.1Z"/><path class="cls-11" d="M69.81,204.85c-4.7,1.62-9.54.42-14.31.76-.39,0-.81-.06-.81-.59a1.09,1.09,0,0,1,.87-1.05c1.42-.38,2.9-.56,4.29-1s2.75-.89,3.39-2.34c-5.45.79-10.84,1.37-15.35,4.76a1.69,1.69,0,0,1-2.09-.16c2.82-2.06,5.56-4.09,8.34-6.08,2.08-1.48,4.36-1,6.53-.36,1.77.49,2.41,0,2.86-1.76,1.43-5.5,3.18-10.92,4.49-16.45.61-2.58,1.45-3.6,4.27-3,2.65.56,5.45.32,8.2,1l-.61,2.57c.17,2.76-1.24,5.09-2.08,7.58-1.57,4.64-3,9.35-5.3,13.71C71.89,203.55,71.29,204.67,69.81,204.85Z"/><path class="cls-4" d="M79.28,131.13c-4.1-8.58-5.09-8.88-12.78-3.74-2,1.34-3.88,2.85-6.32,4.66a36.1,36.1,0,0,1,7.52-12.36,63.84,63.84,0,0,1,11.14-9.53c1.64-1.17,2.7-1.1,3.79.58s2.15,3,3.24,4.51a5,5,0,0,1,.18,3.08c-.59,3.15-.37,6.25,1.59,9,.46.63,1.14,1.21-.15,1.72-2.64,1-4.46,3.07-6.29,5.53Z"/><path class="cls-10" d="M125.61,107c-1.07,4.81-3,9.16-8.28,10.38-5.48,1.28-10-1-13.46-5.26-.92-1.13-1.69-2.37-2.53-3.56A52.13,52.13,0,0,1,99,100.39c-.4-2.46,0-4.23,2.74-4.84,2.17-.15,3.65.38,3.12,3a3.92,3.92,0,0,0,.06,1.18c.56,4,3.26,7,6.3,7.17s5.68-2.22,6.79-6.24c.29-1,.54-2.08.81-3.11,1.53,1.76,1.39,3.86,1.31,5.79.81-1.82-1.22-3.82-.09-5.82.21-.3.43-.87.63-.86,1,0,.74.94.74,1.53A10.09,10.09,0,0,0,125.61,107Z"/><path class="cls-10" d="M39.83,159.53a2.54,2.54,0,0,1,1.84-.75l30.59.18c-.8,2.82-.76,6.63-2.62,8.21-2,1.71-5.82.47-8.85.49-6,.05-12-.11-18,0-2.41.05-3.15-.88-3-3.13C39.94,162.88,39.83,161.2,39.83,159.53Z"/><path class="cls-12" d="M161.57,143c4.8-5.48,8.2-11.86,11.53-18.26.8-1.54.44-3.64.85-5.44.61-2.71,2.92-4.09,5.23-3.25.7.25,1.73.45,1.73,1.35s-1.14,1-1.81,1.07a4.13,4.13,0,0,0-3.8,3.7c-1.39,3-.34,4.67,2.8,5.37a19.14,19.14,0,0,1,3,1.22,98.86,98.86,0,0,1-5.83,17.75c-.85,2-1.49,2.9-3.64,1.27a11.35,11.35,0,0,0-6.5-2.46,18,18,0,0,0-2.32,0C160.24,145.6,160.4,144.57,161.57,143Z"/><path class="cls-10" d="M171,203.8c-.23.72,1.75,2.2-.65,2.17-6.83-.1-13.66.33-20.49-.23,0-1.2,1-1.86,1.65-2.7a126.51,126.51,0,0,0,8.68-13.62c1.44-2.45,2.28-2.49,3.5,0C166,194.26,169.25,198.65,171,203.8Z"/><path class="cls-13" d="M80.5,181.88l1.51-3.1a9.64,9.64,0,0,1,.36,4.36A99.23,99.23,0,0,0,81.91,199c.12,2-.69,3.85-1.08,5.77-.12.56-.31,1.22-1.09,1.15-3.07-.26-6.2.69-9.22-.46,3.85-6.31,5.64-13.46,8.26-20.27A8,8,0,0,1,80.5,181.88Z"/><path class="cls-14" d="M99,187.24c1-5,2.82-6.42,7.7-5.81,1.7.21,2.1-.1,2.32-1.76.39-3,2.27-5.13,4.8-6.71a21.51,21.51,0,0,1,9.6-3.49,10.78,10.78,0,0,0,6.89-3.34,110.47,110.47,0,0,1,11.12-9.6l.64.6c-6.5,5.93-13,11.89-19.51,17.79a7.07,7.07,0,0,0-2.47,4.77,18,18,0,0,1-2.11,7c-1.46,2.6-2.81,3.14-5.2,1.53-2-1.36-2.69-.42-3.38,1.26-.55,1.33-.9,2.81-2.26,3.64l-.55-.55a7.46,7.46,0,0,1,1.1-4.44c1.16-2.41.86-3.71-.92-4.36-2.11-.77-5,.47-5.63,2.34-.39,1.16.25,2.64-1.1,3.49Z"/><path class="cls-10" d="M125,89.71a3.23,3.23,0,0,1-2.09,2.51c-.77.41-2.21.77-1.39,2.64.53,1.2-1.29.33-1.85.83-1.16-.36-.12-2.48-1.89-2.36-1.17-1.54-2.18-3.26-4.11-4-2.71-1-5.46.24-7.27,3.31-.81,1.37-1.55,2.54-3.32,1.3,2.23-5.38,6.43-6.81,11.87-6.23a34.27,34.27,0,0,0,7.07-.3C123.84,87.25,124.78,87.92,125,89.71Z"/><path class="cls-10" d="M102.11,112.79c3,1.84,5.25,4.92,9,5.66.79.15,2.13-.08,2,1.46-.35,1.69-.2,3.82-1.2,4.93-1.28,1.43-2.9-.82-4.52-.82-.87,0-1.74,0-2.61,0-.7-.41-.58-1.08-.54-1.72C104.67,118.85,104.24,115.63,102.11,112.79Z"/><path class="cls-10" d="M100.06,189.57c0-5.78,2.24-8,7-7a3.18,3.18,0,0,1,2.05,5c-.93,1.6-1.68,3.3-2.51,4.95-1.65-.84-.42-2.25-.65-3.36s.68-2.22-.08-3.75c-1.54,2.58-.9,5.15-1.3,7.95-2.08-2.44-1.16-5.32-2.11-8.54-1.13,2.95-.23,5.16,0,7.45C100.81,192,100.88,190.38,100.06,189.57Z"/><path class="cls-15" d="M171,203.8c-3-5.29-5.93-10.58-9.06-16.15-3.89,6.3-7.08,12.81-12.08,18.09l-.65-.78c4.93-5.9,8.55-12.65,12.83-20,3.37,6.41,6.46,12.3,9.54,18.19Z"/><path class="cls-10" d="M92.76,100.89c0-2.71,1.22-3.75,3.86-3.38.2,0,.56,0,.57,0,.59,2.6,1.25,5.19,1.64,7.83.14.88-.93.79-1.6.71-2.42-.26-4-1.43-4.35-4Z"/><path class="cls-16" d="M80.5,181.88c-2.11,6.52-4.36,13-7,19.3a9.32,9.32,0,0,1-3,4.31l-.71-.64c3.47-4.38,4.64-9.78,6.62-14.82,1.17-3,2.3-5.95,3.45-8.92Z"/><path class="cls-17" d="M216.49,190.07a5.33,5.33,0,0,0-4.79,2.07c-4.28,4.76-9.32,8.82-13.3,13.88l-1.47-.54c5.32-5.73,10.87-11.23,16.57-16.59C214.22,190,215.68,189.2,216.49,190.07Z"/><path class="cls-18" d="M104.28,122.26c.64.43.62,1.06.54,1.72-1,1.66-2,3.34-3.06,5-.3.49-.69,1.16-1.34.73s-.27-1.06.08-1.54C101.85,126.25,102.55,123.92,104.28,122.26Z"/><path class="cls-19" d="M113.09,134.09a11.11,11.11,0,0,1-1,1.14,19.91,19.91,0,0,1-2.5,2c-.71.44-1.37,2.06-2.26.88-.69-.92.74-1.56,1.44-2.17.89-.75,1.8-1.49,2.73-2.19C112,133.37,112.55,133.46,113.09,134.09Z"/><path class="cls-20" d="M90.64,181.93,91.82,183c-2,.9-2.24,3-2.95,4.68a10.51,10.51,0,0,1-1.43,3A12.33,12.33,0,0,1,90.64,181.93Z"/><path class="cls-21" d="M114.24,147c-.45,0-.93-.07-.87-.56.13-1.07,1.13-1.21,1.9-1.51.54-.21,1.1.19,1,.68C116,146.54,115,146.78,114.24,147Z"/><path class="cls-22" d="M117.79,154.37c.81-1.06,1.58-1.51,2.61-1.12.14.05.26.58.16.71C119.88,154.83,119,155,117.79,154.37Z"/><path class="cls-23" d="M82.61,203.07l1.32,2.58C81.72,205.93,81.72,205.93,82.61,203.07Z"/><path class="cls-24" d="M53.46,203.72c-.35,2-.35,2-3,1.57Z"/><path class="cls-4" d="M52.73,145c-2.5-1.15-4.63-2.5-7-3.12-2.84-.76-3.76-2.21-3.87-5.1-.41-11.11,4.29-20.12,11.06-28.38.76-.92,1.37-.81,2.22-.23A43.53,43.53,0,0,1,65.61,118c.58.77.84,1.39.07,2.29-3.54,4.16-5.67,9.07-7.86,14C56.27,137.85,53.39,140.79,52.73,145Z"/><path class="cls-4" d="M40.86,135.14c-.06,4.86-.06,4.86-4.78,4.68-4.47-.16-4.55-.16-4.58-5.18,0-8-.42-6.32,6.68-5.75,2.22.18,3.28,1.23,2.72,3.6A11.7,11.7,0,0,0,40.86,135.14Z"/><path class="cls-10" d="M230.72,174.3c1-.85,2-1.71,3.06-2.54,1.56-1.26,3.09-1.36,4.53.21,1,8.85,1.95,17.69,3,27.15a28.86,28.86,0,0,0-14.66-8.48c-1.23-.31-1-1.19-.87-2.1A28.54,28.54,0,0,1,230.72,174.3Z"/><path class="cls-10" d="M215.53,188.79c2.31-3.16,5.06-4.23,8.42-3.34,1.68.45.65,1.75.7,2.63s.07,2-1.59,1.69C220.6,189.32,218.08,189.11,215.53,188.79Z"/><path class="cls-10" d="M170.79,95.61c0,1.63-.66,2.75-2.41,2.65-1.56-.09-2.12-1.14-2.11-2.63s.59-2.77,2.28-2.81S170.74,94.14,170.79,95.61Z"/><path class="cls-10" d="M117.29,97.35c.08,2.73-.43,5.06-2.32,6.93-2.35,2.34-5.38,2.13-7.33-.53a9.92,9.92,0,0,1-.27-10.82c1.12-1.73,2.65-3.09,4.8-2.92s3.6,1.76,4.47,3.8A7.91,7.91,0,0,1,117.29,97.35Z"/><path class="cls-10" d="M126.67,91a3.38,3.38,0,0,1,3.62,0c2.94,1.43,4.35,5.47,3.43,9.84a6.41,6.41,0,0,1-6.48,5.55c-.24-.3-.62-.67-.55-1C127.68,100.54,125.66,95.76,126.67,91Z"/><path class="cls-10" d="M125.93,105.63c-3.74-2.83-4.38-6.36-2.21-12.19,2-.5,2.7.3,3,2.33C127.3,99.18,127.74,102.47,125.93,105.63Z"/><path class="cls-25" d="M125.93,105.63a32.29,32.29,0,0,0,.39-9.06c-.26-1.78-.76-2.88-2.6-3.13l3-2.47a39.29,39.29,0,0,1,.57,15.35C126.69,106.3,126.16,106.25,125.93,105.63Z"/><path class="cls-26" d="M120,97.54c.27,1.53.63,3,.78,4.58.09.87,1.12,2-.09,2.62-1,.54-2.33.64-4.29-.58,3.75,0,3.42-1.79,2.93-3.74-.23-.94-.37-1.9-.55-2.85l.34-1Z"/><path class="cls-27" d="M117.77,93.33c.14-.43.17-1.12.44-1.24.57-.24.73.33.83.82.19.93.41,1.85.62,2.78C117.89,95.81,118.69,93.88,117.77,93.33Z"/><path class="cls-28" d="M176.35,122.29c.72-1.26,1.33-2.6,3.11-2.75,1.17-.11,2.52-.33,2.73-1.76s-1.05-2.16-2.23-2.71c0-2,1.22-3.68,1.81-5.53.45-1.42,1.37-1.63,2.75-1.23,5.83,1.64,6,1.88,3.87,7.47-1.25,3.29-2.59,6.55-3.82,9.85-.61,1.63-1.52,2.15-3.14,1.33a11.84,11.84,0,0,0-2.74-1C176.67,125.45,176,124.26,176.35,122.29Z"/><path class="cls-29" d="M99.62,175.5c1.95-1.4,1.95-1.4,2.9.56.08.16.22.46.3.44.91-.12,1.92-.23,1.48,1.16s-2,.85-2.9,1.37c-.35.18-.83-.21-.8-.88A2.84,2.84,0,0,0,99.62,175.5Z"/><path class="cls-30" d="M96,174.08c1.26.06,1.83-1.48,2.88-1.21.49.13.23,1.09-.17,1.51C97.87,175.3,97,175,96,174.08Z"/><path class="cls-31" d="M106.45,169.45c-.32,2.7-.59,2.83-3.19,1.38C104.71,170.83,105.39,169.89,106.45,169.45Z"/><path class="cls-32" d="M119.28,109.89a2.52,2.52,0,0,1-3.25.67c-.72-.23-1.85-.52-1.61-1.33.36-1.25,1.18-.08,1.8,0C117.13,109.42,118,109.63,119.28,109.89Z"/><path class="cls-10" d="M125.28,170.68c-6.31,3.29-6.2,9.87-8.25,15.8-1.63-2.64-.71-5.18-1.51-8-1.15,1.84-.74,3.37-.66,4.79s.39,2.84.67,4.79c-2.37-2.5-2.27-5.53-3.72-8.5-.92,2.6.64,4.37.66,6.37-3.35-2.15-3.36-7.26,0-10.36C115.94,172.33,120.28,170.92,125.28,170.68Z"/><path class="cls-4" d="M169.69,95.7c0,.86-.3,1.64-1.27,1.54s-1-1-1-1.8.16-1.63,1.23-1.51S169.68,94.93,169.69,95.7Z"/><path class="cls-33" d="M115.72,93.76A6.8,6.8,0,0,0,111,95.15C111.82,92.28,113.48,91.79,115.72,93.76Z"/><path class="cls-34" d="M116.1,99.79c-.09.74.1,1.67-.82,1.68s-1-.79-1-1.51.24-1.43,1.09-1.4S116.09,99.32,116.1,99.79Z"/><path class="cls-35" d="M125,99c.92.41.64,1.27.64,2s-.25,1.22-1,1-.94-.91-.88-1.62A1.29,1.29,0,0,1,125,99Z"/></svg>