<svg id="Layer_1" data-name="Layer 1" xmlns="http://www.w3.org/2000/svg" viewBox="0 0 280 280"><defs><style>.cls-1{fill:#060613;}.cls-2{fill:#0096b1;}.cls-3{fill:#0097b2;}.cls-4{fill:#141420;}.cls-5{fill:#0a0a17;}.cls-6{fill:#0398b2;}.cls-7{fill:#1b1b28;}.cls-8{fill:#151522;}.cls-9{fill:#1f1f2b;}.cls-10{fill:#282833;}.cls-11{fill:#272733;}.cls-12{fill:#252531;}.cls-13{fill:#060a10;}.cls-14{fill:#1a1a27;}.cls-15{fill:#181824;}.cls-16{fill:#191925;}.cls-17{fill:#1b1b27;}.cls-18{fill:#23232f;}.cls-19{fill:#282834;}</style></defs><path class="cls-1" d="M178.21,169.87l2.41,7.81c1.74-6.39,3.32-12.14,4.88-17.91,2.21-8.18,5.41-10.5,13.52-9.24,11.82,1.85,23.61,3.93,35.41,5.88,5.45.91,10.92,1.65,16.35,2.65,6.07,1.12,7.22,2.92,5.66,8.94-2.64,10.23-5.41,20.43-8.14,30.63-2.17,8.14-4.42,16.25-6.51,24.41-.6,2.37-1.5,3.48-4.29,3.47q-81.24-.22-162.48-.19c-2.46,0-3.06-.74-3-3.11.09-10.3,0-20.61,0-30.92,0-2-1.48-4.19.92-5.79.34,1.23,0,2.67,1.07,3.69.87,9.05.19,18.13.36,27.19.12,6.59,0,6.59,6.76,6.6,5.39,0,10.78,0,16.17,0a75,75,0,0,1,9.6.09c5.35.56,9.56-.87,12.33-5.68a3.53,3.53,0,0,1,2-1c3.79.12,7.61,0,11.4.19,4,.24,6.12-1.09,5.93-5.29.35-1,.66-2,2-1.9,1.17,6.85,5.76,7.82,11.7,7.21a106.83,106.83,0,0,1,12.4-.07c2.83,0,4.66-1,5.36-3.87,2.25-9.39,5.06-18.62,7.47-28,1.23-4.74-.92-9.07-1-13.62C176.66,171,176.76,169.89,178.21,169.87Z"/><path class="cls-2" d="M177.1,106.88c5.48-6,5-11.14.78-17.4s-2.77-13.34,1.43-19.54c11.24-16.58,42.46-18.12,55.45-2.79,8.92,10.52,7,24.5-4.7,32.31-10.3,6.88-21.68,8.65-33.42,4.86a15.42,15.42,0,0,0-12.62.83C182.31,106,180.58,107.17,177.1,106.88Z"/><path class="cls-1" d="M154.36,56.9c4.41.68,7.84,2.91,9.15,7.22a9.91,9.91,0,0,1-3.78,11.4c-1.37,1-1.42,1.84-.72,3.29,1.11,2.32,1.49,5.11,3,7.12,2.07,2.8,1.3,5.89,1.9,8.82,2.72,7.37,1.75,14.45-1.7,21.33-.8.54-1.38.21-1.87-.48-.56-5.51,2-10.8,1.16-16.36-.27-1.8,0-3.67-.64-5.44-.38-1-.56-2.14-1.68-2.61-2.57-1.09-4-2-.93-4.58,1.41-1.17-.17-3.16-.93-4.6s-2-1.37-3.22-.9a66.65,66.65,0,0,1-20.65,4.13c-2.42.14-3.11,2.19-4,4-1.53,3-2.71,6.28-6.41,7.39-3.06,0-5.43-2-8.14-3a3.41,3.41,0,0,1-2.08-3.78c1.23-12.22,7.34-24,18.85-29.17,2.46-1.11,5.07-2.34,7.94-1.09,2.16.8,2.45-1.3,3.41-2.27a12.83,12.83,0,0,1,15.84-1.95h-7.2c-1.56,1-3.47,1.07-5.1,2C149.06,55.8,151.71,56.28,154.36,56.9Z"/><path class="cls-3" d="M139.57,59.6C122,62.39,115.92,76.52,113.73,90c-.26,1.66.25,2.75,2,2.92,2.72.26,4.7,2.13,7.07,3.13,4,2.63,5.73,7.14,4.67,12.18a30.94,30.94,0,0,1-2.9,7.63,5.56,5.56,0,0,1-2.12,1.79c-2,.89-4,1.78-6,2.65a1.47,1.47,0,0,1-1.18-.38c-9-.46-13.77-3.56-15.65-10.09a12.5,12.5,0,0,1,3-12.79c.94-1,2-1.89,2.06-3.45,4.58-.89,6.2-3.93,6.94-8.33a37.21,37.21,0,0,1,11.21-21.11A21.07,21.07,0,0,1,135.31,58C136.83,58.25,138.88,57.11,139.57,59.6Z"/><path class="cls-1" d="M135.31,58c-14.94,5.5-21.23,17.29-23.49,32.12-.65,4.22-3.94,3.93-7.11,3.51-3.54-13.85,1.84-24.52,12.33-33C122.37,56.32,128.8,56,135.31,58Z"/><path class="cls-4" d="M115.31,120l1.2-.27c1.95,8.42,9.45,12.42,14.56,18.32,1.31,1.52,3.11.93,4.73,1.11a2,2,0,0,1,.57,1.14c-2.15,3.9-3.36,4.32-6.51,1.56-4.28-3.74-7.9-8.15-12-12-3.35-3.16-3.9-3-6.16,1.29a2.62,2.62,0,0,1-1.38,1.32c-5.07,1.75-8.29,6-12.4,9.1-1.34,1-2.39,2.37-3.81,3.26-4.1,2.58-6.49,5.85-4.7,10.94-.2.67-.51,1.21-1.34,1.17l-2.18-6.48c-1-3-2.41-5.74-5.09-7.43-9.41-5.93-19.6-10.33-30-15.7C50,136,58.65,137.66,61.44,143.8H49.77l.26,4.49c.44,1,0,1.23-.89,1.18-.21-.9-.36-1.81-.63-2.68-.53-1.7-1.59-3.59-3.3-3.37-2.12.28-.9,2.52-1,3.85-.19,2.89-.06,5.81-.06,8.72l-1.68,0c0-3.55.18-7.11,0-10.64-.29-4.57.61-10-6.65-10.36-.8,0-1.32-2.51-2.28-3.57-1.1-1.22-2.58-2.79-4.28-2-1.35.59-.35,2.45-.43,3.74,0,.55-.09,1.11-.17,2.11-2.31-1.41-4.54-2.19-5.71-4.64,1.78-.92,2.41,1.39,3.78.92.47-1.4-1-3.38.68-4.23a4.25,4.25,0,0,1,5.08,1.14C35.57,133,43,133.27,43.77,140c.12,1.07,1.39.94,2.27,1.19,3.75,1.07,7.59.88,12.7,1.09-2.77-2.46-4.76-4.23-6.75-6a8.45,8.45,0,0,1-3.11-4.94,5.37,5.37,0,0,1,1.41-5.12c1.5-1.33,2.83.23,4.09.86,7.67,3.84,15.26,7.8,22.94,11.6,4,1.94,7.29,4.4,9.1,8.85,9-8.05,18.69-14.91,26.65-23.76C114.1,122.65,115.3,121.67,115.31,120Z"/><path class="cls-5" d="M136,140.55l-.15-1.34c-5-5.64-8.65-12.29-13.18-18.29-.82-1.07-1.66-2.28-.91-3.8.26-.84,1-1.1,1.71-1.34,3.44,1.53,5.29,4.9,8.2,7.11,9.53,7.23,19.38,5.7,25.87-4.28.85-1.3,1.1-3.33,3.29-3.38l.69,1c1.11,1.17,0,1.91-.55,2.75-3.85,7.4-10.17,11.15-18.26,11.78,2.42,6.66,8.18,8.71,13.37,11.49,6.46,3.48,13.25,6.57,16.87,13.59.44.91-.11,1.19-.85,1.35-1.76-.4-2.88-1.73-4-3-4.84-5.63-11.71-8.18-17.81-11.88-2-1.19-3-.84-3.18,1.73-.14,2.87-.32,5.79-1.94,8.35a1.42,1.42,0,0,1-1.62-.84c-1-3.5-.48-7,0-10.48.2-1.36.4-2.93-1-3.74s-2.17.65-3.08,1.37C138.43,139.54,137.53,140.68,136,140.55Z"/><path class="cls-6" d="M160.93,119c.19-.92.37-1.83.55-2.75,3-6.9,2.53-14.2,2.4-21.46a11.57,11.57,0,0,1,6.83,13.49c-.53,2.57-.28,4.18,1.69,6,2.55,2.37,5.32,5,3.2,9.15-1.41,2.73-9.55,6.18-12.55,5.29-1.25-.37-3-.59-2.92-2.4.09-1.64,1.67-2,3-2.4a7.4,7.4,0,0,1,4.9.72c2.16.91,4-.19,5.36-1.6s.88-3.23-.14-4.72-2.27-3.36-4.29-3.94c-.4-.12-1.14.83-1.69,1.33C165.45,117.33,163.64,119,160.93,119Z"/><path class="cls-7" d="M88,156.85l.68-.88c2.1-.26,2.49,1.56,3.1,2.81,9.25,18.89,19.2,37.44,28.68,56.21.45.89,1.29,1.84.3,2.92l-.85,1.2c-1.93-.4-2.5-2.12-3.39-3.52C113,210,110.31,204,107.38,198c-1.62-3.27-4-4.78-7.65-4.71-6.61.12-13.22.1-19.83,0-3.31,0-4.72,1.23-4.66,4.62.13,6.76.15,13.52,0,20.28-.08,3.64,1.49,4.92,5,4.82,4.3-.13,8.61-.14,12.91,0,1.88.07,4.14-.42,5.12,2.05l-22.51.24c-1.55,0-2.78-.42-2.77-2.27q.09-15.61.24-31.23a4.87,4.87,0,0,1,.73-1.67h30.65C98.93,178.8,93.49,167.82,88,156.85Z"/><path class="cls-8" d="M71.3,185.51c-.62-4.56-1.34-9.1-1.81-13.67-.2-2-.65-3-2.94-3-2.89-.05-5.78-.7-8.68-.88-5.48-.33-10.48-1.58-14.6-5.61C40.87,160,38,158.15,35.33,156s-5.9-3.57-6.19-7.93c-.12-1.68-2.69-3.16-4.09-4.78-.84-1-2.5-1.53-1.47-4,2.91,3.78,7.88,5.39,8.05,11,0,1.16,1.22,1.68,2.05,2.33,4.84,3.78,9.71,7.51,14.51,11.33,2.49,2,5.5,1.67,8.33,2.06,3.79.53,7.62.85,11.45,1.05,2.09.1,3,.92,3.19,3,.29,4.13.71,8.25,1.07,12.37C72.26,183.53,73.45,185,71.3,185.51Z"/><path class="cls-9" d="M49.14,149.47l.89-1.18c.82,1,.62,2.32.84,3.5A4.25,4.25,0,0,0,57.18,155c3.83-1.83,7.71-3,11.95-1.36a42.34,42.34,0,0,0-13.27,3.64C52.46,158.82,49.1,154.65,49.14,149.47Z"/><path class="cls-10" d="M172,156.86l.9-1c3.28,4.11,4.16,9.13,5.3,14.05l-.81,1.88c-.31,0-.75.05-.84-.15C174.39,166.9,172.38,162.13,172,156.86Z"/><path class="cls-11" d="M71.3,185.51c1-.83.6-2.09.93-3.12a6.06,6.06,0,0,1,.63,4.11c-1.43,1.75-.09,3.94-.92,5.79A17.84,17.84,0,0,1,71.3,185.51Z"/><path class="cls-12" d="M139.48,212.48c-1.73-6.68-1.52-13.61-2.56-20.38-.92-6-1.25-12.16-1.87-18.24-.14-1.38-.35-2.73.87-3.78,1.68,6.07,1.53,12.35,2.25,18.53.85,7.29,1.44,14.61,2.13,21.92Z"/><path class="cls-13" d="M219.16,77.32q-6.45,4.82-12.89,9.64c-1.22.91-2,.17-2.69-.71-1.46-1.94-2.84-3.93-5.07-7,2.62.52,3.44,1.58,3.91,2.57,1.92,4,4.09,3.25,6.93.87s5.58-5,9-6.51Z"/><path class="cls-14" d="M110.91,131c4.17,8.91,8.35,17.81,12.8,27.31,2.64-3.23,5.08-6.08,7.35-9.06,1.56-2,3-2.37,4.69-.27,1.9,2.39,3.78,4.79,5.67,7.18l1.38-.95c.43-1.33.87-2.66,1.31-4l.85,1c.39,2.17-.37,4.13-.9,6.31-3.69-2-5.71-5.5-9.51-8.26.44,5.92.83,11.25,1.22,16.58-1.76-.19-1.56-1.6-1.67-2.77-.42-4.39-.8-8.79-1.24-13.62-3.31,2.15-4.83,5.57-7.24,8.14-1.68,1.81-2.61,2.85-4-.38-3.66-8.84-7.62-17.56-11.46-26.34Z"/><path class="cls-15" d="M149,104.92c7.46-4.07-1.66-9.22,1.32-13.8a23.09,23.09,0,0,1,3.77,11.11C154.38,105.16,151.49,105.31,149,104.92Z"/><path class="cls-16" d="M151.57,115.06c-5.93,2.12-10.74-.23-12.41-5.3-.19-.55-.68-1.09,0-1.63a.89.89,0,0,1,1.51.3C142.58,113.29,146.45,115,151.57,115.06Z"/><path class="cls-17" d="M133.11,95c2.9-4.73,5.6-5.65,11.34-3.35A24.86,24.86,0,0,0,133.11,95Z"/><path class="cls-18" d="M140,100.87c-1.53-.07-1.89-1.26-2-2.49a2.82,2.82,0,0,1,2-3.19c1.34-.25,2.1,1.23,2,2.43S141.69,100.39,140,100.87Z"/><path class="cls-19" d="M157.53,95.94c.13-1.41.34-3,1.95-3.16s1.74,1.44,1.79,2.6c.06,1.38-.26,3-1.85,3.15C158,98.65,157.74,97.11,157.53,95.94Z"/></svg>