<svg id="Layer_1" data-name="Layer 1" xmlns="http://www.w3.org/2000/svg" viewBox="0 0 280 280"><defs><style>.cls-1{fill:#111;}.cls-2{fill:#231711;}.cls-3{fill:#161415;}.cls-4{fill:#716d6d;}.cls-5{fill:#141213;}.cls-6{fill:#171413;}.cls-7{fill:#161413;}.cls-8{fill:#716e6f;}.cls-9{fill:#726e6d;}.cls-10{fill:#2b1f1a;}.cls-11{fill:#7b7574;}.cls-12{fill:#3aa6b9;}.cls-13{fill:#fff;}.cls-14{fill:#171312;}.cls-15{fill:#261c15;}.cls-16{fill:#2a1e1a;}.cls-17{fill:#c0b0a7;}.cls-18{fill:#aba2a0;}.cls-19{fill:#a9a19f;}.cls-20{fill:#a79e9e;}.cls-21{fill:#ded1c8;}.cls-22{fill:#a0928a;}.cls-23{fill:#231b15;}.cls-24{fill:#241a16;}.cls-25{fill:#302520;}.cls-26{fill:#2c2119;}.cls-27{fill:#2a211b;}.cls-28{fill:#241c16;}.cls-29{fill:#231c17;}</style></defs><path class="cls-1" d="M97.17,95.44c5.06-2.18,3.41-5.69,2.22-9.51-2.53-8.14.35-15.14,7.09-18.55,2.68-1.35,5.51-1.31,8.62-1-1.58-4.54-2-9,.27-13.19a15.67,15.67,0,0,1,7.37-7c7.32-3.34,13.8-1.18,20.08,6.85l1.54-1.91c7.92-10,21-12.52,31.61-5.31,7.19,4.88,9.58,12,4.33,19.75C174.58,74,166.27,79,156.75,82c-2.37.75-3.14,1.55-3,4.09a106.71,106.71,0,0,1-1.24,24.21c-.37,2.21,0,3.63,2.19,4.93,5.84,3.55,8.53,9.26,8.95,15.83a7.61,7.61,0,0,0,3.39,6.13c2,1.51,3.68,3.33,5.51,5,.43,1-.32,1.79-.62,2.65a72.33,72.33,0,0,1-10.05,13.85,14.78,14.78,0,0,1-2.36,2.18c-1.24.86-2.69,2.35-4.1,1.2s-.34-2.92.34-4.25a47.47,47.47,0,0,0,4.62-29.11,14.79,14.79,0,0,0-4.8-8.94c-2.46-2.3-2.62-2.27-3.8,1.08a34.57,34.57,0,0,1-3.87,8.42,5.19,5.19,0,0,0-.56,5,46.73,46.73,0,0,1,.14,29.18c-3,9.61-2.42,19.3-1.91,29a70.45,70.45,0,0,0,1,11c.35,1.62,1,2.66,2.68,2.85,1.89.21,2-1.41,2.3-2.61,2.42-9.46,4.45-19,6.8-28.48,1.59-6.37,2.63-7.2,9.06-7.18,8.23,0,16.45-.19,24.68.11.86,0,1.68-.63,2.58-.19,1.08,1.54,2.71,1.2,4.22,1.2l56.94,0c6,0,6.34.44,5,6.11-4.8,20.37-9.62,40.74-14.57,61.72h27c-1.3,1.72-2.44,1.25-3.4,1.25q-120.15,0-240.31,0c-.59,0-1.18-.1-1.77-.15-.54-.63.57-1.24,0-1.87a9.14,9.14,0,0,1-3.27-6.49c-.11-2.37-.76-4-3.31-4.67A2.12,2.12,0,0,1,19.55,223a1.69,1.69,0,0,1,.95-1.22c2.93-.07,4.17-1.46,3.85-4.46a18.38,18.38,0,0,1,.2-5.68,15.3,15.3,0,0,1,.14-1.65,15.46,15.46,0,0,0,5.81-9.9,2,2,0,0,1,1.79-1.56,2,2,0,0,1,1.48,1.71A8.08,8.08,0,0,1,34,202c-.21,5.3-.21,5.3,5,5.32,3.46,0,6.92-.12,10.37.06s4.9,1.28,4.89,4.78c0,7,.9,14.05-.69,21-.41,1.78.39,2.11,1.83,2.08,9.52-.24,19,.39,28.57-.44,7.82-.68,15.66-1.27,23.5-1.68,2.53-.12,4.49-.34,4.16-3.69-.15-1.56,1.06-2.57,2.56-3a8.45,8.45,0,0,1,2.82-.4c6.18.07,6.17.46,5.19-6.21a28.37,28.37,0,0,1,1.43-13.33c.58-1.78.88-3.43,0-5.14a1.54,1.54,0,0,1,1.13-1.78c1.44-.47,2.47.55,4,1.17a126.11,126.11,0,0,0-7.35-27.66A101.71,101.71,0,0,0,98.37,136.8c-3.16-3.18-3.15-4.57.07-7.76,1.83-1.81,3.19-4.22,5.85-5.08a1.45,1.45,0,0,1,1.26.79c-.19,2.63,1.11,4.25,3.23,5.76a137.38,137.38,0,0,1,19,16.54c3.07,3.2,3.66,3,6.07-.63a68.61,68.61,0,0,0,6.09-12c.33-.94.19-2,.63-2.92,4.94-4.87,7.44-10.93,8.66-17.63a14.21,14.21,0,0,0,.32-3.19c-.07-1.51-1-2-2.34-2.11-1.68-.1-1.84.85-1.91,2.25-.16,3.74-1.66,4.87-4.83,3.91-2.84-.86-3.23-2.16-1.22-4.33.51-.55,1.13-1,.63-1.78s-1.45-.69-2.27-.59c-5.67.68-11.37,1.17-17,2.53-5.29,1.3-5.93.93-8-4.16-.37-.88-.79-1.75-1.08-2.65-1-3-2.83-4.88-6.2-4.79a4.49,4.49,0,0,1-1.49-.34c-1.59-2.39-4-2.09-6.33-1.86A.93.93,0,0,1,97.17,95.44Z"/><path class="cls-2" d="M29.82,236c.9.35,1.57.83.17,1.35-.73.26-1.62,0-2.21.76a145.78,145.78,0,0,1-21-.4c3.74-.42,3.18-2.92,3.18-5.17q0-39.66,0-79.32c0-20,15.09-35.24,35.22-35.39q20.21-.14,40.43,0a20.05,20.05,0,0,0,8.93-1.81,65.29,65.29,0,0,1,9.51-3c1.34-.38,3.19-.25,2.35-2.47-.54-1.4.09-3.82-3-3.29-2.88.5-5.59-.4-6.9-3.27s-1.79-5.94.72-8.62l.74,1c1,1.08.61,2.44.7,3.69a5,5,0,0,0,1.36,3.52,2.32,2.32,0,0,0,2.29.58c1.1-.32.85-1.26.82-2.06-.06-1.47-.8-3,.67-4.27l1.45,0c1.37,1.15,1.76,2.75,2.13,4.4,1.11,4.86,2.36,9.7,3.38,14.59,2.45,11.78,16.12,17.07,24.46,15.61,1.89-.33,3.83-1.67,5.83-.27.24.7,1,1.37.15,2.14-4.72,3.28-9.83,3-15.08,1.7a29.26,29.26,0,0,1-13.1-6.95c-2.47-2.26-4.6-4.82-4.29-8.29.11,2.23-.32,4.31-3.4,4.51l-.76-1c-.8-2.08,1.06-3.76.83-5.82-.2-1.72-.61-2.79-2.57-2.28-4.61,1.21-9.11,2.58-13,5.63-4.14,3.3-5.66,7.43-4.56,12.58.32,1.48,1,3,0,4.49a1.56,1.56,0,0,1-1.56.58c-3.35-3.15-4-10.15-1.44-15.28a19.12,19.12,0,0,0,1.58-2.85c-.77-1.11-2-.62-2.92-.62-12.06,0-24.12-.08-36.18,0-17.18.08-31.77,14-32,31.19-.3,26.47-.06,52.94-.11,79.42,0,2.66.81,4,3.69,3.89C20.89,235.2,25.39,235,29.82,236Z"/><path class="cls-3" d="M220.15,127.63c7.27,0,14.53,0,21.8,0,1.93,0,3.11.23,3.08,2.66s-.68,3.14-3.05,3.12q-21.61-.12-43.24,0c-2.29,0-3.17-.73-3.16-3.08s1.17-2.72,3.14-2.7C205.86,127.67,213,127.63,220.15,127.63Z"/><path class="cls-4" d="M227.35,142.1c-6.92,0-13.84-.06-20.76,0-2.26,0-3.23-.69-3.24-3.07s1.2-2.69,3.14-2.68q20.76.06,41.52,0c2.19,0,3.34.53,3.29,3-.05,2.31-1.22,2.77-3.19,2.75C241.19,142.06,234.27,142.09,227.35,142.1Z"/><path class="cls-5" d="M210.86,145c4.3,0,8.6.08,12.89,0,2-.06,2.78.6,2.72,2.65-.05,1.89-.19,3.15-2.66,3.12-8.47-.12-16.95-.1-25.42,0-2.35,0-2.76-1.09-2.78-3.07s.69-2.75,2.72-2.69C202.51,145.11,206.69,145,210.86,145Z"/><path class="cls-6" d="M210.15,118.9c3.69,0,7.39.07,11.09,0,2.28-.07,2.81,1,2.8,3.06s-.76,2.76-2.75,2.74c-7.63-.07-15.26-.09-22.89,0-2.28,0-2.83-1-2.8-3s.72-2.79,2.74-2.74C202.28,119,206.21,118.9,210.15,118.9Z"/><path class="cls-7" d="M245.59,118.9c3.69,0,7.39.08,11.07,0,2.21-.07,2.84.82,2.85,3s-.67,2.91-2.86,2.88c-7.49-.1-15-.08-22.49,0-2.12,0-2.93-.71-2.91-2.91s.77-3,2.92-2.89C238,119,241.79,118.9,245.59,118.9Z"/><path class="cls-8" d="M260.23,133.48c-3.45,0-6.9,0-10.35,0-2.2,0-2.84-1-2.84-3.1s.8-2.72,2.76-2.7c6.9.06,13.8.09,20.69,0,2.23,0,2.5,1.1,2.49,2.89s-.11,3-2.41,3c-3.44-.12-6.89,0-10.34,0Z"/><path class="cls-9" d="M263.2,142.11c-2.26,0-4.52-.05-6.78,0S253.6,141,253.61,139s1-2.66,2.88-2.63c4.63.07,9.27.1,13.9,0,2.09-.06,2.63.81,2.61,2.74s-.26,3.22-2.68,3.05S265.57,142.12,263.2,142.11Z"/><path class="cls-10" d="M194.71,168l-1.57,1.32a12.43,12.43,0,0,1-2.36-2.6,114.59,114.59,0,0,0-16.57-19.35,14.2,14.2,0,0,1-3.14-3.8l1.49-1.4A108.62,108.62,0,0,1,194.71,168Z"/><path class="cls-11" d="M229.73,122.09c0,1.47-.41,2.56-2.16,2.54-2.32,0-2.08-1.7-2.11-3.24s.35-2.56,2.1-2.54C229.85,118.88,229.73,120.53,229.73,122.09Z"/><path class="cls-12" d="M85.07,138.67c-3.43-11.23-.53-17.22,10.53-21.45,2.66-1,5.47-1.65,8.16-2.58,2.54-.88,3,.12,2.89,2.48-.17,2.62.06,5.26-2.13,7.26-2.22,2.31-4.37,4.7-6.68,6.92-1.32,1.28-1.35,2,.06,3.35C117,153.18,126,176.6,130.28,202.26a7.31,7.31,0,0,1-.07,1.37c-2.39-.3-2.72-3.15-4.88-3.47A136.64,136.64,0,0,0,106,201.42C101,202,96,202.07,91.14,203c-2,.36-2.63-1.17-3.15-2.71a12.6,12.6,0,0,0-5.1-6.9,12.36,12.36,0,0,1,5,6.71c.53,1.54.33,2.53-1.62,3.14-2.25.71-4.49.33-6.7.73q14-1.53,28.08-2.84c4.34-.4,8.69-1.31,13.1-.91,1,.1,2.17-.2,3,.67,2.31,1,3.23,2.08,1.73,4.82-3.11,5.73-2.71,12-1.28,18.11.8,3.36-.19,4-3.1,3.6a27.25,27.25,0,0,0-2.86,0c-6.36,0-6.36,0-4.68,6.55-21.12,1.86-42.16,3.89-64.51,2.62,4.74-3.6,3.82-8,3.87-12.19s-.23-8.11.08-12.13c.24-3.15-.94-3.75-3.78-3.61-4.64.24-9.31-.14-14,.14-3.24.2-3.9-1-3.24-3.85.36-1.49.52-3,.77-4.55,1.52-2.38,2.51-.4,3.62.45.55.43,1,1.18,1.8.87s.65-1.21.61-1.89c-.33-4.85,1.9-7.91,6.12-10.3,5.47-3.1,8.85-12,7.19-18.52a6.18,6.18,0,0,1,2.1-6.92c4.6-4.13,8.53-9,13.43-12.82,2.58-2,4.92-2.15,7.52-.56,4.81,2.93,10,5.08,15,7.48a101.58,101.58,0,0,0,15.27,5.56,68.27,68.27,0,0,1-6.87-5.79,90.81,90.81,0,0,1-6.87-7.27,73.61,73.61,0,0,1-5.72-7.77C85.35,141.59,84.09,140.4,85.07,138.67Z"/><path class="cls-12" d="M171.07,143.58a1.6,1.6,0,0,1,1.6.52,136.92,136.92,0,0,1,20.19,23.58,1.74,1.74,0,0,1,.28,1.65c-9.54,0-19.09,0-28.64-.14-2.77,0-3.66,1.33-4.22,3.74-2.52,11-5.17,22-7.83,33-.24,1,.14,3-1.63,2.43s-5.17.37-5.44-2.84c-1.22-14.55-3.29-29.05,1.12-43.6,2.95-9.72,2.93-19.76-1.41-29.34-.32-.71-.58-1.26,0-1.92,3.87-4.32,5.36-9.73,6.84-15.33,7.68,3.88,10.27,10.46,10.41,18.29.17,9.92-1.55,19.43-7.46,28.25C160,159.73,166.42,152.31,171.07,143.58Z"/><path class="cls-13" d="M141,132.22c-9.47,3.65-17.9,1.73-25.55-4.66a14.63,14.63,0,0,1-5-7.19,211.16,211.16,0,0,1-5.24-22.48c4.62-1.17,6.26,1.76,7.54,5.35.82,2.34,1.26,5.44,3,6.65s4.64-.81,7.07-1.22q8.1-1.38,16.28-2c2.69-.2,2.8,1.25,3.05,3.15.33,2.59-1.36,1.49-2.47,1.47-.58,0-1.23-.21-1.42.58s.38,1.09,1,1.21c1.58.31,3.26,1.65,4.7.66s-.08-2.66.12-4c.14-1-1.17-3.23,1.22-2.65,2,.48,6.09-1.71,5.77,2.43C150.34,118.12,148.53,126.51,141,132.22Z"/><path class="cls-13" d="M126.9,79.61c7.45,3.68,15.09,4.32,22.9,3.49,2-.21,2.54.38,2.56,2.21a153.17,153.17,0,0,1-.47,18.55c-.2,1.77-.79,2.1-2.44,2-3.27-.3-7,.29-6.4-5,.09-.72-.27-1.5-1.2-1.38s-.95,1.11-.76,1.69c1.23,3.78-.82,4.09-3.86,4.21a78.63,78.63,0,0,0-19,2.91c-1.4.41-1.86.09-2.33-1.17-1-2.55-2-5.07-3.19-7.54-.69-1.45-.44-1.91,1.15-2.46C122.47,94.07,126.43,88.76,126.9,79.61Z"/><path class="cls-14" d="M32.2,198.79a6.42,6.42,0,0,0-1.06-4c-5.6-10.3-4.17-19.4,5.59-25.34a9.47,9.47,0,0,0,4.73-9c-.17-2.63,1-2.58,2.75-1.51A23.14,23.14,0,0,1,51.57,166c4.49-4.63,8.77-9.18,13.53-13.24,5.93-5,12.53-9.08,19.13-13.12l.84-.93c5.87,10.57,14.13,19,24.38,26.41-4.67.11-8.28-1.36-11.92-2.65a159.08,159.08,0,0,1-23.88-11.25c-1.87-1-3.06-1-4.69.33A145.34,145.34,0,0,0,54.4,165.24a4.65,4.65,0,0,0-1.26,5c2.07,7.49-1.72,17-8.42,20.72-3.69,2-4.94,4.84-4.58,8.78.12,1.34.77,3.18-1,3.77-1.52.51-2.4-1.15-3.54-1.95-.78-.55-.82-3.17-2.74-1.23Z"/><path class="cls-13" d="M105.28,125.33A6.32,6.32,0,0,0,108,119c5,11.7,13.84,16.55,25.63,16.48a51.39,51.39,0,0,0,7.52-1.14,75.63,75.63,0,0,1-7.65,14.82c-1.85,2.88-2.95,2.63-5.1.25a122.5,122.5,0,0,0-22.56-19.59C103.41,128.21,103.53,127.08,105.28,125.33Z"/><path class="cls-13" d="M141.45,224.69c.33,0,.09,0-.15,0-6.61-.3-7.37-1.11-7.36-8,0-9.75,1-10.61,10.16-8.43,7.38,1.76,7.37,1.76,5.64,9.09-.13.58-.16,1.18-.29,1.76C148.06,225.06,148.06,225.06,141.45,224.69Z"/><path class="cls-13" d="M213,193c-3.36,3-.7,6.06-1.69,8.86-.17.48.3.79.61,1.16,3.92,4.66,1.83,10.39-4.25,11.46-2.83.5-5.7.33-7.08-2.7a5.51,5.51,0,0,1,2.23-7.23c3.8-2.35,4.72-6.59,7.36-9.65C210.66,194.32,210.61,193.26,213,193Z"/><path class="cls-15" d="M123.81,200.87c-16.08.42-32,3-48,4.16-.14,0-.3-.3-.71-.74,3.31-1.39,6.72-1.21,10-1.5,2.66-.24,2.68-1.33,1.82-3.33-1.71-3.94-4.85-6.18-9.53-7.47,2.33-1.26,3.62-.36,4.92.25,2.23,1,4.42,2.63,5,4.87,1.36,5.36,4.8,5,9.05,4.5,8.15-1,16.35-1.54,24.54-2.18,1.47-.11,3.11-.5,4.42.73Z"/><path class="cls-13" d="M103.75,97.87c-.21,2.07.59,4,1.06,5.91.43,1.76-.22,2-1.68,2.09-5.12.34-7.33-3.63-5.22-9.46C101.9,93.52,101.9,93.52,103.75,97.87Z"/><path class="cls-16" d="M25.57,211.79c-2.85-.3-5.2.53-6.55,3.18-1.47,2.88-.25,5.23,1.73,7.36l-.85.79c-3.11-1.92-3.46-4.86-2.63-8,.89-3.35,3.6-4.81,8.35-5Z"/><path class="cls-17" d="M147.24,227.29H133.9c4.35-2.34,8.8-.83,13.21-.91Z"/><path class="cls-18" d="M36.59,218.32c-.63,1.7-2.29,2-3.51,3.19l3.83,2.78c-2.36-.06-5.16-1-5.22-2.82S34.75,219.19,36.59,218.32Z"/><path class="cls-19" d="M44,225.37c.84-2.54,3.12-2.39,3.69-4-.87-1.24-2.83-1.22-3.5-3.29,2.28.84,5.14,1.69,5.17,3.5C49.43,223.27,46.37,223.89,44,225.37Z"/><path class="cls-20" d="M38.61,226.5a27.54,27.54,0,0,1,4-10.16C42.15,220.06,40.32,223.24,38.61,226.5Z"/><path class="cls-21" d="M106.67,236.08c3.29.23,6.67-1.73,9.89.74h-7C108.55,236.88,107.25,237.89,106.67,236.08Z"/><path class="cls-22" d="M106.67,236.08l2.94.74c-3,.63-6,.16-9,.09C102.5,235.79,104.58,235.92,106.67,236.08Z"/><path class="cls-13" d="M208.83,195.53c-.23.81-.91.92-1.64.78-1.35-.24-2.52-.87-2.64-2.37-.07-1,.89-.92,1.54-.8A3,3,0,0,1,208.83,195.53Z"/><path class="cls-23" d="M122.94,189.08c0,.79.21,1.67-.78,1.81-1.26.18-1.14-.85-1.28-1.66-1.45-8.87-4.62-17.19-8.28-25.35-.37-.83-1.66-2.14-.34-2.8,1.63-.81,1.8,1.12,2.21,2,3.49,7.83,6.64,15.79,8.13,24.29C122.71,188,122.84,188.59,122.94,189.08Z"/><path class="cls-24" d="M146.8,183.9a103.66,103.66,0,0,1,2.35-19.78c.19-.88,0-2.69,1.4-2.43,1.87.34.67,2,.49,2.95-1.46,8-2.63,15.94-2.18,24.08,0,.82.54,2.19-1,2.16-1,0-1-1.16-1.06-2C146.77,187.23,146.8,185.57,146.8,183.9Z"/><path class="cls-25" d="M134.93,120.7a4.58,4.58,0,0,1-3.61-2.72c-.4-.84-.93-1.94.21-2.45s1.28.65,1.62,1.38a2.5,2.5,0,0,0,2.45,1.69c.76,0,1.51.18,1.28,1.15C136.68,120.57,135.92,120.71,134.93,120.7Z"/><path class="cls-26" d="M134.83,88.43c-.09.21-.18.59-.29.6-2.41.17-4.41,1.37-6.48,2.44-.49.25-.86-.45-.71-.9a4.61,4.61,0,0,1,3.41-2.84c1.24-.39,2.53-.88,3.74.1A1.91,1.91,0,0,1,134.83,88.43Z"/><path class="cls-27" d="M147.14,87.09a4.25,4.25,0,0,1,3.79,1.41c.6.71,1.39,1.58.4,2.44s-1.38-.31-1.82-.89a2.52,2.52,0,0,0-2.21-.86c-.8,0-1.89.24-1.94-.92C145.31,86.85,146.64,87.27,147.14,87.09Z"/><path class="cls-28" d="M148.31,100.39c0,1-.1,2-1.42,1.94-1.12,0-1.17-1-1.17-1.83s.1-2,1.41-2C148.18,98.61,148.26,99.55,148.31,100.39Z"/><path class="cls-29" d="M132.89,100.39c0-1,.23-2.09,1.31-2.16.87-.06,1.25.93,1.25,1.81s0,2-1.27,2.1C133.16,102.19,133,101.23,132.89,100.39Z"/><path class="cls-13" d="M43.07,160.36c10.83,5.09,12.63,21,2.76,28-5,3.49-8.37,6.8-7,13.41-11.22-6.91-12.26-23-2.29-30.23C40.45,168.72,43.05,165.35,43.07,160.36Z"/></svg>